<mxfile host="Electron" modified="2024-05-27T01:10:42.853Z" agent="Mozilla/5.0 (Windows NT 10.0; Win64; x64) AppleWebKit/537.36 (KHTML, like Gecko) draw.io/22.1.11 Chrome/114.0.5735.289 Electron/25.9.8 Safari/537.36" etag="CbzWRhQofnLqR1jp6DiB" version="22.1.11" type="device">
  <diagram name="Page-1" id="KclHfVyfTWAcDaPJaYIX">
    <mxGraphModel dx="989" dy="626" grid="1" gridSize="10" guides="1" tooltips="1" connect="1" arrows="1" fold="1" page="1" pageScale="1" pageWidth="1100" pageHeight="850" math="0" shadow="0">
      <root>
        <mxCell id="0" />
        <mxCell id="1" parent="0" />
        <mxCell id="vMFv8rTqyA6VuDPY4Urf-1" value="" style="whiteSpace=wrap;html=1;aspect=fixed;" vertex="1" parent="1">
          <mxGeometry x="160" y="130" width="170" height="170" as="geometry" />
        </mxCell>
        <mxCell id="vMFv8rTqyA6VuDPY4Urf-3" value="" style="endArrow=none;html=1;rounded=0;fillColor=#dae8fc;strokeColor=#6c8ebf;exitX=0;exitY=0.75;exitDx=0;exitDy=0;entryX=0.5;entryY=1;entryDx=0;entryDy=0;" edge="1" parent="1" source="vMFv8rTqyA6VuDPY4Urf-8" target="vMFv8rTqyA6VuDPY4Urf-1">
          <mxGeometry width="50" height="50" relative="1" as="geometry">
            <mxPoint x="240" y="470" as="sourcePoint" />
            <mxPoint x="245" y="300" as="targetPoint" />
            <Array as="points">
              <mxPoint x="250" y="380" />
            </Array>
          </mxGeometry>
        </mxCell>
        <mxCell id="vMFv8rTqyA6VuDPY4Urf-4" value="" style="endArrow=none;html=1;rounded=0;entryX=0.12;entryY=0.994;entryDx=0;entryDy=0;strokeColor=#999999;entryPerimeter=0;" edge="1" parent="1" target="vMFv8rTqyA6VuDPY4Urf-1">
          <mxGeometry width="50" height="50" relative="1" as="geometry">
            <mxPoint x="40" y="490" as="sourcePoint" />
            <mxPoint x="213" y="310" as="targetPoint" />
          </mxGeometry>
        </mxCell>
        <mxCell id="vMFv8rTqyA6VuDPY4Urf-5" value="" style="endArrow=none;html=1;rounded=0;entryX=0.75;entryY=1;entryDx=0;entryDy=0;fillColor=#f8cecc;strokeColor=#b85450;exitX=0;exitY=0.25;exitDx=0;exitDy=0;" edge="1" parent="1" source="vMFv8rTqyA6VuDPY4Urf-8" target="vMFv8rTqyA6VuDPY4Urf-1">
          <mxGeometry width="50" height="50" relative="1" as="geometry">
            <mxPoint x="310" y="470" as="sourcePoint" />
            <mxPoint x="233" y="320" as="targetPoint" />
          </mxGeometry>
        </mxCell>
        <mxCell id="vMFv8rTqyA6VuDPY4Urf-6" value="" style="endArrow=none;html=1;rounded=0;fillColor=#d5e8d4;strokeColor=#B6E0A8;" edge="1" parent="1">
          <mxGeometry width="50" height="50" relative="1" as="geometry">
            <mxPoint x="570" y="340" as="sourcePoint" />
            <mxPoint x="560" y="170" as="targetPoint" />
          </mxGeometry>
        </mxCell>
        <mxCell id="vMFv8rTqyA6VuDPY4Urf-7" value="" style="endArrow=none;html=1;rounded=0;entryX=0.75;entryY=1;entryDx=0;entryDy=0;fillColor=#fff2cc;strokeColor=#d6b656;" edge="1" parent="1">
          <mxGeometry width="50" height="50" relative="1" as="geometry">
            <mxPoint x="612" y="340" as="sourcePoint" />
            <mxPoint x="590" y="170" as="targetPoint" />
          </mxGeometry>
        </mxCell>
        <mxCell id="vMFv8rTqyA6VuDPY4Urf-8" value="" style="rounded=1;whiteSpace=wrap;html=1;rotation=90;" vertex="1" parent="1">
          <mxGeometry x="220" y="520" width="120" height="60" as="geometry" />
        </mxCell>
        <mxCell id="vMFv8rTqyA6VuDPY4Urf-9" value="220V" style="rounded=0;whiteSpace=wrap;html=1;fillColor=#f8cecc;strokeColor=#b85450;" vertex="1" parent="1">
          <mxGeometry x="20" y="550" width="70" height="60" as="geometry" />
        </mxCell>
        <mxCell id="vMFv8rTqyA6VuDPY4Urf-10" value="" style="endArrow=none;html=1;rounded=0;exitX=0.25;exitY=0;exitDx=0;exitDy=0;fillColor=#ffe6cc;strokeColor=#d79b00;" edge="1" parent="1" source="vMFv8rTqyA6VuDPY4Urf-9">
          <mxGeometry width="50" height="50" relative="1" as="geometry">
            <mxPoint x="230" y="480" as="sourcePoint" />
            <mxPoint x="38" y="490" as="targetPoint" />
          </mxGeometry>
        </mxCell>
        <mxCell id="vMFv8rTqyA6VuDPY4Urf-13" value="L" style="edgeLabel;html=1;align=center;verticalAlign=middle;resizable=0;points=[];" vertex="1" connectable="0" parent="vMFv8rTqyA6VuDPY4Urf-10">
          <mxGeometry x="0.1617" y="1" relative="1" as="geometry">
            <mxPoint as="offset" />
          </mxGeometry>
        </mxCell>
        <mxCell id="vMFv8rTqyA6VuDPY4Urf-11" value="" style="endArrow=none;html=1;rounded=0;exitX=0.75;exitY=0;exitDx=0;exitDy=0;fillColor=#dae8fc;strokeColor=#6c8ebf;" edge="1" parent="1" source="vMFv8rTqyA6VuDPY4Urf-9">
          <mxGeometry width="50" height="50" relative="1" as="geometry">
            <mxPoint x="48" y="560" as="sourcePoint" />
            <mxPoint x="250" y="370" as="targetPoint" />
          </mxGeometry>
        </mxCell>
        <mxCell id="vMFv8rTqyA6VuDPY4Urf-12" value="N" style="edgeLabel;html=1;align=center;verticalAlign=middle;resizable=0;points=[];" vertex="1" connectable="0" parent="vMFv8rTqyA6VuDPY4Urf-11">
          <mxGeometry x="0.0513" y="-2" relative="1" as="geometry">
            <mxPoint as="offset" />
          </mxGeometry>
        </mxCell>
      </root>
    </mxGraphModel>
  </diagram>
</mxfile>
